<svg width="162" height="102" viewBox="0 0 162 102" fill="none" xmlns="http://www.w3.org/2000/svg">
<g filter="url(#filter0_d)">
<path d="M1 9C1 4.58172 4.58172 1 9 1H153C157.418 1 161 4.58172 161 9V93C161 97.4183 157.418 101 153 101H9C4.58172 101 1 97.4183 1 93V9Z" fill="white"/>
<rect x="109" y="10" width="42" height="42" rx="21" stroke="#CCCCCC" stroke-width="2" stroke-miterlimit="1.64343"/>
<path d="M118.479 35.75V34.71H120.559V42H119.409V35.75H118.479ZM122.125 38.26C122.125 37.1067 122.319 36.2067 122.705 35.56C123.099 34.9067 123.772 34.58 124.725 34.58C125.679 34.58 126.349 34.9067 126.735 35.56C127.129 36.2067 127.325 37.1067 127.325 38.26C127.325 39.4267 127.129 40.34 126.735 41C126.349 41.6533 125.679 41.98 124.725 41.98C123.772 41.98 123.099 41.6533 122.705 41C122.319 40.34 122.125 39.4267 122.125 38.26ZM126.205 38.26C126.205 37.72 126.169 37.2633 126.095 36.89C126.029 36.5167 125.889 36.2133 125.675 35.98C125.462 35.74 125.145 35.62 124.725 35.62C124.305 35.62 123.989 35.74 123.775 35.98C123.562 36.2133 123.419 36.5167 123.345 36.89C123.279 37.2633 123.245 37.72 123.245 38.26C123.245 38.82 123.279 39.29 123.345 39.67C123.412 40.05 123.552 40.3567 123.765 40.59C123.985 40.8233 124.305 40.94 124.725 40.94C125.145 40.94 125.462 40.8233 125.675 40.59C125.895 40.3567 126.039 40.05 126.105 39.67C126.172 39.29 126.205 38.82 126.205 38.26ZM132.382 32.56L129.662 43.75H128.542L131.252 32.56H132.382ZM133.518 35.75V34.71H135.598V42H134.448V35.75H133.518ZM137.164 38.26C137.164 37.1067 137.358 36.2067 137.744 35.56C138.138 34.9067 138.811 34.58 139.764 34.58C140.718 34.58 141.388 34.9067 141.774 35.56C142.168 36.2067 142.364 37.1067 142.364 38.26C142.364 39.4267 142.168 40.34 141.774 41C141.388 41.6533 140.718 41.98 139.764 41.98C138.811 41.98 138.138 41.6533 137.744 41C137.358 40.34 137.164 39.4267 137.164 38.26ZM141.244 38.26C141.244 37.72 141.208 37.2633 141.134 36.89C141.068 36.5167 140.928 36.2133 140.714 35.98C140.501 35.74 140.184 35.62 139.764 35.62C139.344 35.62 139.028 35.74 138.814 35.98C138.601 36.2133 138.458 36.5167 138.384 36.89C138.318 37.2633 138.284 37.72 138.284 38.26C138.284 38.82 138.318 39.29 138.384 39.67C138.451 40.05 138.591 40.3567 138.804 40.59C139.024 40.8233 139.344 40.94 139.764 40.94C140.184 40.94 140.501 40.8233 140.714 40.59C140.934 40.3567 141.078 40.05 141.144 39.67C141.211 39.29 141.244 38.82 141.244 38.26Z" fill="#31BA70"/>
<rect width="71" height="12" transform="translate(7 9)" fill="#FCC12A" fill-opacity="0.3"/>
<path d="M10.872 12.44V13.184H8.512V14.824H10.352V15.568H8.512V18H7.6V12.44H10.872ZM14.3332 18.056C13.8159 18.056 13.3385 17.936 12.9012 17.696C12.4692 17.4507 12.1252 17.112 11.8692 16.68C11.6185 16.2427 11.4932 15.752 11.4932 15.208C11.4932 14.664 11.6185 14.176 11.8692 13.744C12.1252 13.312 12.4692 12.976 12.9012 12.736C13.3385 12.4907 13.8159 12.368 14.3332 12.368C14.8559 12.368 15.3332 12.4907 15.7652 12.736C16.2025 12.976 16.5465 13.312 16.7972 13.744C17.0479 14.176 17.1732 14.664 17.1732 15.208C17.1732 15.752 17.0479 16.2427 16.7972 16.68C16.5465 17.112 16.2025 17.4507 15.7652 17.696C15.3332 17.936 14.8559 18.056 14.3332 18.056ZM14.3332 17.264C14.7012 17.264 15.0292 17.1813 15.3172 17.016C15.6052 16.8453 15.8292 16.6053 15.9892 16.296C16.1545 15.9813 16.2372 15.6187 16.2372 15.208C16.2372 14.7973 16.1545 14.4373 15.9892 14.128C15.8292 13.8187 15.6052 13.5813 15.3172 13.416C15.0292 13.2507 14.7012 13.168 14.3332 13.168C13.9652 13.168 13.6372 13.2507 13.3492 13.416C13.0612 13.5813 12.8345 13.8187 12.6692 14.128C12.5092 14.4373 12.4292 14.7973 12.4292 15.208C12.4292 15.6187 12.5092 15.9813 12.6692 16.296C12.8345 16.6053 13.0612 16.8453 13.3492 17.016C13.6372 17.1813 13.9652 17.264 14.3332 17.264ZM20.6866 18.056C20.1693 18.056 19.692 17.936 19.2546 17.696C18.8226 17.4507 18.4786 17.112 18.2226 16.68C17.972 16.2427 17.8466 15.752 17.8466 15.208C17.8466 14.664 17.972 14.176 18.2226 13.744C18.4786 13.312 18.8226 12.976 19.2546 12.736C19.692 12.4907 20.1693 12.368 20.6866 12.368C21.2093 12.368 21.6866 12.4907 22.1186 12.736C22.556 12.976 22.9 13.312 23.1506 13.744C23.4013 14.176 23.5266 14.664 23.5266 15.208C23.5266 15.752 23.4013 16.2427 23.1506 16.68C22.9 17.112 22.556 17.4507 22.1186 17.696C21.6866 17.936 21.2093 18.056 20.6866 18.056ZM20.6866 17.264C21.0546 17.264 21.3826 17.1813 21.6706 17.016C21.9586 16.8453 22.1826 16.6053 22.3426 16.296C22.508 15.9813 22.5906 15.6187 22.5906 15.208C22.5906 14.7973 22.508 14.4373 22.3426 14.128C22.1826 13.8187 21.9586 13.5813 21.6706 13.416C21.3826 13.2507 21.0546 13.168 20.6866 13.168C20.3186 13.168 19.9906 13.2507 19.7026 13.416C19.4146 13.5813 19.188 13.8187 19.0226 14.128C18.8626 14.4373 18.7826 14.7973 18.7826 15.208C18.7826 15.6187 18.8626 15.9813 19.0226 16.296C19.188 16.6053 19.4146 16.8453 19.7026 17.016C19.9906 17.1813 20.3186 17.264 20.6866 17.264ZM26.3201 12.44C26.9121 12.44 27.4294 12.5547 27.8721 12.784C28.3201 13.008 28.6641 13.3333 28.9041 13.76C29.1494 14.1813 29.2721 14.6747 29.2721 15.24C29.2721 15.8053 29.1494 16.296 28.9041 16.712C28.6641 17.128 28.3201 17.448 27.8721 17.672C27.4294 17.8907 26.9121 18 26.3201 18H24.5041V12.44H26.3201ZM26.3201 17.256C26.9707 17.256 27.4694 17.08 27.8161 16.728C28.1627 16.376 28.3361 15.88 28.3361 15.24C28.3361 14.5947 28.1627 14.0907 27.8161 13.728C27.4694 13.3653 26.9707 13.184 26.3201 13.184H25.4161V17.256H26.3201ZM31.1679 12.44V18H30.2559V12.44H31.1679ZM33.3573 13.176V14.808H35.2773V15.552H33.3573V17.256H35.5173V18H32.4453V12.432H35.5173V13.176H33.3573ZM43.1827 19.008L42.2067 17.952C41.9667 18.0213 41.7027 18.056 41.4147 18.056C40.8974 18.056 40.4201 17.936 39.9827 17.696C39.5507 17.4507 39.2067 17.112 38.9507 16.68C38.7001 16.2427 38.5747 15.752 38.5747 15.208C38.5747 14.664 38.7001 14.176 38.9507 13.744C39.2067 13.312 39.5507 12.976 39.9827 12.736C40.4201 12.4907 40.8974 12.368 41.4147 12.368C41.9374 12.368 42.4147 12.4907 42.8467 12.736C43.2841 12.976 43.6281 13.312 43.8787 13.744C44.1294 14.176 44.2547 14.664 44.2547 15.208C44.2547 15.72 44.1427 16.184 43.9187 16.6C43.7001 17.0107 43.3961 17.3413 43.0067 17.592L44.3427 19.008H43.1827ZM39.5107 15.208C39.5107 15.6187 39.5907 15.9813 39.7507 16.296C39.9161 16.6053 40.1427 16.8453 40.4307 17.016C40.7187 17.1813 41.0467 17.264 41.4147 17.264C41.7827 17.264 42.1107 17.1813 42.3987 17.016C42.6867 16.8453 42.9107 16.6053 43.0707 16.296C43.2361 15.9813 43.3187 15.6187 43.3187 15.208C43.3187 14.7973 43.2361 14.4373 43.0707 14.128C42.9107 13.8187 42.6867 13.5813 42.3987 13.416C42.1107 13.2507 41.7827 13.168 41.4147 13.168C41.0467 13.168 40.7187 13.2507 40.4307 13.416C40.1427 13.5813 39.9161 13.8187 39.7507 14.128C39.5907 14.4373 39.5107 14.7973 39.5107 15.208ZM46.1596 12.44V15.984C46.1596 16.4053 46.269 16.7227 46.4876 16.936C46.7116 17.1493 47.021 17.256 47.4156 17.256C47.8156 17.256 48.125 17.1493 48.3436 16.936C48.5676 16.7227 48.6796 16.4053 48.6796 15.984V12.44H49.5916V15.968C49.5916 16.4213 49.493 16.8053 49.2956 17.12C49.0983 17.4347 48.8343 17.6693 48.5036 17.824C48.173 17.9787 47.8076 18.056 47.4076 18.056C47.0076 18.056 46.6423 17.9787 46.3116 17.824C45.9863 17.6693 45.7276 17.4347 45.5356 17.12C45.3436 16.8053 45.2476 16.4213 45.2476 15.968V12.44H46.1596ZM51.7711 13.176V14.808H53.6911V15.552H51.7711V17.256H53.9311V18H50.8591V12.432H53.9311V13.176H51.7711ZM56.9504 12.44C57.5424 12.44 58.0597 12.5547 58.5024 12.784C58.9504 13.008 59.2944 13.3333 59.5344 13.76C59.7797 14.1813 59.9024 14.6747 59.9024 15.24C59.9024 15.8053 59.7797 16.296 59.5344 16.712C59.2944 17.128 58.9504 17.448 58.5024 17.672C58.0597 17.8907 57.5424 18 56.9504 18H55.1344V12.44H56.9504ZM56.9504 17.256C57.601 17.256 58.0997 17.08 58.4464 16.728C58.793 16.376 58.9664 15.88 58.9664 15.24C58.9664 14.5947 58.793 14.0907 58.4464 13.728C58.0997 13.3653 57.601 13.184 56.9504 13.184H56.0464V17.256H56.9504ZM64.2383 16.864H61.9103L61.5103 18H60.5583L62.5503 12.432H63.6063L65.5983 18H64.6383L64.2383 16.864ZM63.9823 16.12L63.0783 13.536L62.1663 16.12H63.9823ZM68.3604 12.44C68.9524 12.44 69.4697 12.5547 69.9124 12.784C70.3604 13.008 70.7044 13.3333 70.9444 13.76C71.1897 14.1813 71.3124 14.6747 71.3124 15.24C71.3124 15.8053 71.1897 16.296 70.9444 16.712C70.7044 17.128 70.3604 17.448 69.9124 17.672C69.4697 17.8907 68.9524 18 68.3604 18H66.5444V12.44H68.3604ZM68.3604 17.256C69.011 17.256 69.5097 17.08 69.8564 16.728C70.203 16.376 70.3764 15.88 70.3764 15.24C70.3764 14.5947 70.203 14.0907 69.8564 13.728C69.5097 13.3653 69.011 13.184 68.3604 13.184H67.4564V17.256H68.3604ZM75.6483 16.864H73.3203L72.9203 18H71.9683L73.9603 12.432H75.0163L77.0083 18H76.0483L75.6483 16.864ZM75.3923 16.12L74.4883 13.536L73.5763 16.12H75.3923Z" fill="black" fill-opacity="0.5"/>
<rect width="34" height="12" transform="translate(7 23)" fill="#2AFC7E" fill-opacity="0.3"/>
<path d="M11.488 28.096C11.488 28.3787 11.4213 28.6453 11.288 28.896C11.1547 29.1467 10.9413 29.352 10.648 29.512C10.3547 29.6667 9.97867 29.744 9.52 29.744H8.512V32H7.6V26.44H9.52C9.94667 26.44 10.3067 26.5147 10.6 26.664C10.8987 26.808 11.12 27.0053 11.264 27.256C11.4133 27.5067 11.488 27.7867 11.488 28.096ZM9.52 29C9.86667 29 10.1253 28.9227 10.296 28.768C10.4667 28.608 10.552 28.384 10.552 28.096C10.552 27.488 10.208 27.184 9.52 27.184H8.512V29H9.52ZM13.3418 26.44V29.984C13.3418 30.4053 13.4511 30.7227 13.6698 30.936C13.8938 31.1493 14.2031 31.256 14.5978 31.256C14.9978 31.256 15.3071 31.1493 15.5258 30.936C15.7498 30.7227 15.8618 30.4053 15.8618 29.984V26.44H16.7738V29.968C16.7738 30.4213 16.6751 30.8053 16.4778 31.12C16.2805 31.4347 16.0165 31.6693 15.6858 31.824C15.3551 31.9787 14.9898 32.056 14.5898 32.056C14.1898 32.056 13.8245 31.9787 13.4938 31.824C13.1685 31.6693 12.9098 31.4347 12.7178 31.12C12.5258 30.8053 12.4298 30.4213 12.4298 29.968V26.44H13.3418ZM15.4218 25.248L13.6538 26.12V25.448L15.4218 24.472V25.248ZM21.0173 29.144C21.3159 29.1973 21.5693 29.3547 21.7773 29.616C21.9853 29.8773 22.0893 30.1733 22.0893 30.504C22.0893 30.7867 22.0146 31.0427 21.8653 31.272C21.7213 31.496 21.5106 31.6747 21.2333 31.808C20.9559 31.936 20.6332 32 20.2652 32H18.0412V26.44H20.1612C20.5399 26.44 20.8652 26.504 21.1372 26.632C21.4092 26.76 21.6146 26.9333 21.7533 27.152C21.8919 27.3653 21.9612 27.6053 21.9612 27.872C21.9612 28.192 21.8759 28.4587 21.7053 28.672C21.5346 28.8853 21.3053 29.0427 21.0173 29.144ZM18.9532 28.776H20.0812C20.3799 28.776 20.6119 28.7093 20.7773 28.576C20.9479 28.4373 21.0333 28.24 21.0333 27.984C21.0333 27.7333 20.9479 27.5387 20.7773 27.4C20.6119 27.256 20.3799 27.184 20.0812 27.184H18.9532V28.776ZM20.1853 31.256C20.4946 31.256 20.7373 31.1813 20.9132 31.032C21.0892 30.8827 21.1772 30.6747 21.1772 30.408C21.1772 30.136 21.0839 29.92 20.8972 29.76C20.7106 29.6 20.4626 29.52 20.1532 29.52H18.9532V31.256H20.1853ZM24.0723 31.264H25.9523V32H23.1603V26.44H24.0723V31.264ZM27.707 26.44V32H26.795V26.44H27.707ZM28.6804 29.208C28.6804 28.664 28.8057 28.176 29.0564 27.744C29.3124 27.312 29.6564 26.976 30.0884 26.736C30.5257 26.4907 31.003 26.368 31.5204 26.368C32.1124 26.368 32.6377 26.5147 33.0964 26.808C33.5604 27.096 33.8964 27.5067 34.1044 28.04H33.0084C32.8644 27.7467 32.6644 27.528 32.4084 27.384C32.1524 27.24 31.8564 27.168 31.5204 27.168C31.1524 27.168 30.8244 27.2507 30.5364 27.416C30.2484 27.5813 30.0217 27.8187 29.8564 28.128C29.6964 28.4373 29.6164 28.7973 29.6164 29.208C29.6164 29.6187 29.6964 29.9787 29.8564 30.288C30.0217 30.5973 30.2484 30.8373 30.5364 31.008C30.8244 31.1733 31.1524 31.256 31.5204 31.256C31.8564 31.256 32.1524 31.184 32.4084 31.04C32.6644 30.896 32.8644 30.6773 33.0084 30.384H34.1044C33.8964 30.9173 33.5604 31.328 33.0964 31.616C32.6377 31.904 32.1124 32.048 31.5204 32.048C30.9977 32.048 30.5204 31.928 30.0884 31.688C29.6564 31.4427 29.3124 31.104 29.0564 30.672C28.8057 30.24 28.6804 29.752 28.6804 29.208ZM38.6039 30.864H36.2759L35.8759 32H34.9239L36.9159 26.432H37.9719L39.9639 32H39.0039L38.6039 30.864ZM38.3479 30.12L37.4439 27.536L36.5319 30.12H38.3479Z" fill="black" fill-opacity="0.5"/>
<path d="M9.72 46V43.42H14.54V58H11.66V46H9.72ZM17.3061 50.52C17.3061 48.2133 17.7194 46.4067 18.5461 45.1C19.3861 43.7933 20.7728 43.14 22.7061 43.14C24.6394 43.14 26.0194 43.7933 26.8461 45.1C27.6861 46.4067 28.1061 48.2133 28.1061 50.52C28.1061 52.84 27.6861 54.66 26.8461 55.98C26.0194 57.3 24.6394 57.96 22.7061 57.96C20.7728 57.96 19.3861 57.3 18.5461 55.98C17.7194 54.66 17.3061 52.84 17.3061 50.52ZM25.3461 50.52C25.3461 49.5333 25.2794 48.7067 25.1461 48.04C25.0261 47.36 24.7728 46.8067 24.3861 46.38C24.0128 45.9533 23.4528 45.74 22.7061 45.74C21.9594 45.74 21.3928 45.9533 21.0061 46.38C20.6328 46.8067 20.3794 47.36 20.2461 48.04C20.1261 48.7067 20.0661 49.5333 20.0661 50.52C20.0661 51.5333 20.1261 52.3867 20.2461 53.08C20.3661 53.76 20.6194 54.3133 21.0061 54.74C21.3928 55.1533 21.9594 55.36 22.7061 55.36C23.4528 55.36 24.0194 55.1533 24.4061 54.74C24.7928 54.3133 25.0461 53.76 25.1661 53.08C25.2861 52.3867 25.3461 51.5333 25.3461 50.52ZM30.2358 50.52C30.2358 48.2133 30.6491 46.4067 31.4758 45.1C32.3158 43.7933 33.7024 43.14 35.6358 43.14C37.5691 43.14 38.9491 43.7933 39.7758 45.1C40.6158 46.4067 41.0358 48.2133 41.0358 50.52C41.0358 52.84 40.6158 54.66 39.7758 55.98C38.9491 57.3 37.5691 57.96 35.6358 57.96C33.7024 57.96 32.3158 57.3 31.4758 55.98C30.6491 54.66 30.2358 52.84 30.2358 50.52ZM38.2758 50.52C38.2758 49.5333 38.2091 48.7067 38.0758 48.04C37.9558 47.36 37.7024 46.8067 37.3158 46.38C36.9424 45.9533 36.3824 45.74 35.6358 45.74C34.8891 45.74 34.3224 45.9533 33.9358 46.38C33.5624 46.8067 33.3091 47.36 33.1758 48.04C33.0558 48.7067 32.9958 49.5333 32.9958 50.52C32.9958 51.5333 33.0558 52.3867 33.1758 53.08C33.2958 53.76 33.5491 54.3133 33.9358 54.74C34.3224 55.1533 34.8891 55.36 35.6358 55.36C36.3824 55.36 36.9491 55.1533 37.3358 54.74C37.7224 54.3133 37.9758 53.76 38.0958 53.08C38.2158 52.3867 38.2758 51.5333 38.2758 50.52ZM42.8455 47C42.8455 45.9867 43.1388 45.1933 43.7255 44.62C44.3255 44.0467 45.0921 43.76 46.0255 43.76C46.9588 43.76 47.7188 44.0467 48.3055 44.62C48.9055 45.1933 49.2055 45.9867 49.2055 47C49.2055 48.0267 48.9055 48.8267 48.3055 49.4C47.7188 49.9733 46.9588 50.26 46.0255 50.26C45.0921 50.26 44.3255 49.9733 43.7255 49.4C43.1388 48.8267 42.8455 48.0267 42.8455 47ZM55.6855 44L47.8255 58H45.1055L52.9455 44H55.6855ZM46.0055 45.44C45.2721 45.44 44.9055 45.96 44.9055 47C44.9055 48.0533 45.2721 48.58 46.0055 48.58C46.3655 48.58 46.6455 48.4533 46.8455 48.2C47.0455 47.9333 47.1455 47.5333 47.1455 47C47.1455 45.96 46.7655 45.44 46.0055 45.44ZM51.6255 54.98C51.6255 53.9533 51.9188 53.16 52.5055 52.6C53.1055 52.0267 53.8721 51.74 54.8055 51.74C55.7388 51.74 56.4921 52.0267 57.0655 52.6C57.6521 53.16 57.9455 53.9533 57.9455 54.98C57.9455 56.0067 57.6521 56.8067 57.0655 57.38C56.4921 57.9533 55.7388 58.24 54.8055 58.24C53.8588 58.24 53.0921 57.9533 52.5055 57.38C51.9188 56.8067 51.6255 56.0067 51.6255 54.98ZM54.7855 53.42C54.0255 53.42 53.6455 53.94 53.6455 54.98C53.6455 56.0333 54.0255 56.56 54.7855 56.56C55.5321 56.56 55.9055 56.0333 55.9055 54.98C55.9055 53.94 55.5321 53.42 54.7855 53.42Z" fill="black"/>
<path d="M9.72 71.512C9.72 70.128 9.952 69.048 10.416 68.272C10.888 67.488 11.696 67.096 12.84 67.096C13.984 67.096 14.788 67.488 15.252 68.272C15.724 69.048 15.96 70.128 15.96 71.512C15.96 72.912 15.724 74.008 15.252 74.8C14.788 75.584 13.984 75.976 12.84 75.976C11.696 75.976 10.888 75.584 10.416 74.8C9.952 74.008 9.72 72.912 9.72 71.512ZM14.616 71.512C14.616 70.864 14.572 70.316 14.484 69.868C14.404 69.42 14.236 69.056 13.98 68.776C13.724 68.488 13.344 68.344 12.84 68.344C12.336 68.344 11.956 68.488 11.7 68.776C11.444 69.056 11.272 69.42 11.184 69.868C11.104 70.316 11.064 70.864 11.064 71.512C11.064 72.184 11.104 72.748 11.184 73.204C11.264 73.66 11.432 74.028 11.688 74.308C11.952 74.588 12.336 74.728 12.84 74.728C13.344 74.728 13.724 74.588 13.98 74.308C14.244 74.028 14.416 73.66 14.496 73.204C14.576 72.748 14.616 72.184 14.616 71.512ZM18.8835 71.428C18.0515 71.012 17.6355 70.356 17.6355 69.46C17.6355 69.028 17.7435 68.632 17.9595 68.272C18.1755 67.912 18.4995 67.628 18.9315 67.42C19.3635 67.204 19.8915 67.096 20.5155 67.096C21.1315 67.096 21.6555 67.204 22.0875 67.42C22.5275 67.628 22.8555 67.912 23.0715 68.272C23.2875 68.632 23.3955 69.028 23.3955 69.46C23.3955 69.908 23.2795 70.304 23.0475 70.648C22.8235 70.984 22.5235 71.244 22.1475 71.428C22.6035 71.596 22.9635 71.872 23.2275 72.256C23.4915 72.632 23.6235 73.076 23.6235 73.588C23.6235 74.108 23.4915 74.568 23.2275 74.968C22.9635 75.368 22.5955 75.676 22.1235 75.892C21.6515 76.108 21.1155 76.216 20.5155 76.216C19.9155 76.216 19.3795 76.108 18.9075 75.892C18.4435 75.676 18.0795 75.368 17.8155 74.968C17.5515 74.568 17.4195 74.108 17.4195 73.588C17.4195 73.068 17.5515 72.62 17.8155 72.244C18.0795 71.868 18.4355 71.596 18.8835 71.428ZM22.0875 69.628C22.0875 69.18 21.9475 68.836 21.6675 68.596C21.3875 68.356 21.0035 68.236 20.5155 68.236C20.0355 68.236 19.6555 68.356 19.3755 68.596C19.0955 68.836 18.9555 69.184 18.9555 69.64C18.9555 70.04 19.0995 70.368 19.3875 70.624C19.6835 70.872 20.0595 70.996 20.5155 70.996C20.9715 70.996 21.3475 70.868 21.6435 70.612C21.9395 70.356 22.0875 70.028 22.0875 69.628ZM20.5155 72.028C19.9875 72.028 19.5555 72.16 19.2195 72.424C18.8915 72.68 18.7275 73.052 18.7275 73.54C18.7275 73.996 18.8875 74.368 19.2075 74.656C19.5275 74.936 19.9635 75.076 20.5155 75.076C21.0595 75.076 21.4875 74.932 21.7995 74.644C22.1195 74.356 22.2795 73.988 22.2795 73.54C22.2795 73.06 22.1155 72.688 21.7875 72.424C21.4675 72.16 21.0435 72.028 20.5155 72.028ZM29.6798 64.672L26.4158 78.1H25.0718L28.3238 64.672H29.6798ZM31.0439 68.5V67.252H33.5399V76H32.1599V68.5H31.0439ZM36.1752 74.14C36.9432 73.476 37.5472 72.932 37.9872 72.508C38.4352 72.076 38.8072 71.628 39.1032 71.164C39.3992 70.7 39.5472 70.236 39.5472 69.772C39.5472 69.292 39.4312 68.916 39.1992 68.644C38.9752 68.372 38.6192 68.236 38.1312 68.236C37.6592 68.236 37.2912 68.388 37.0272 68.692C36.7712 68.988 36.6352 69.388 36.6192 69.892H35.2992C35.3232 68.98 35.5952 68.284 36.1152 67.804C36.6432 67.316 37.3112 67.072 38.1192 67.072C38.9912 67.072 39.6712 67.312 40.1592 67.792C40.6552 68.272 40.9032 68.912 40.9032 69.712C40.9032 70.288 40.7552 70.844 40.4592 71.38C40.1712 71.908 39.8232 72.384 39.4152 72.808C39.0152 73.224 38.5032 73.708 37.8792 74.26L37.3392 74.74H41.1432V75.88H35.3112V74.884L36.1752 74.14Z" fill="black"/>
<path d="M10.476 91.14C11.244 90.476 11.848 89.932 12.288 89.508C12.736 89.076 13.108 88.628 13.404 88.164C13.7 87.7 13.848 87.236 13.848 86.772C13.848 86.292 13.732 85.916 13.5 85.644C13.276 85.372 12.92 85.236 12.432 85.236C11.96 85.236 11.592 85.388 11.328 85.692C11.072 85.988 10.936 86.388 10.92 86.892H9.6C9.624 85.98 9.896 85.284 10.416 84.804C10.944 84.316 11.612 84.072 12.42 84.072C13.292 84.072 13.972 84.312 14.46 84.792C14.956 85.272 15.204 85.912 15.204 86.712C15.204 87.288 15.056 87.844 14.76 88.38C14.472 88.908 14.124 89.384 13.716 89.808C13.316 90.224 12.804 90.708 12.18 91.26L11.64 91.74H15.444V92.88H9.612V91.884L10.476 91.14ZM16.4658 85.5V84.252H18.9618V93H17.5818V85.5H16.4658ZM21.5731 93.084C21.3251 93.084 21.1171 93 20.9491 92.832C20.7811 92.664 20.6971 92.456 20.6971 92.208C20.6971 91.96 20.7811 91.752 20.9491 91.584C21.1171 91.416 21.3251 91.332 21.5731 91.332C21.8131 91.332 22.0171 91.416 22.1851 91.584C22.3531 91.752 22.4371 91.96 22.4371 92.208C22.4371 92.456 22.3531 92.664 22.1851 92.832C22.0171 93 21.8131 93.084 21.5731 93.084ZM21.5731 88.044C21.3251 88.044 21.1171 87.96 20.9491 87.792C20.7811 87.624 20.6971 87.416 20.6971 87.168C20.6971 86.92 20.7811 86.712 20.9491 86.544C21.1171 86.376 21.3251 86.292 21.5731 86.292C21.8131 86.292 22.0171 86.376 22.1851 86.544C22.3531 86.712 22.4371 86.92 22.4371 87.168C22.4371 87.416 22.3531 87.624 22.1851 87.792C22.0171 87.96 21.8131 88.044 21.5731 88.044ZM23.7825 88.512C23.7825 87.128 24.0145 86.048 24.4785 85.272C24.9505 84.488 25.7585 84.096 26.9025 84.096C28.0465 84.096 28.8505 84.488 29.3145 85.272C29.7865 86.048 30.0225 87.128 30.0225 88.512C30.0225 89.912 29.7865 91.008 29.3145 91.8C28.8505 92.584 28.0465 92.976 26.9025 92.976C25.7585 92.976 24.9505 92.584 24.4785 91.8C24.0145 91.008 23.7825 89.912 23.7825 88.512ZM28.6785 88.512C28.6785 87.864 28.6345 87.316 28.5465 86.868C28.4665 86.42 28.2985 86.056 28.0425 85.776C27.7865 85.488 27.4065 85.344 26.9025 85.344C26.3985 85.344 26.0185 85.488 25.7625 85.776C25.5065 86.056 25.3345 86.42 25.2465 86.868C25.1665 87.316 25.1265 87.864 25.1265 88.512C25.1265 89.184 25.1665 89.748 25.2465 90.204C25.3265 90.66 25.4945 91.028 25.7505 91.308C26.0145 91.588 26.3985 91.728 26.9025 91.728C27.4065 91.728 27.7865 91.588 28.0425 91.308C28.3065 91.028 28.4785 90.66 28.5585 90.204C28.6385 89.748 28.6785 89.184 28.6785 88.512ZM31.47 88.512C31.47 87.128 31.702 86.048 32.166 85.272C32.638 84.488 33.446 84.096 34.59 84.096C35.734 84.096 36.538 84.488 37.002 85.272C37.474 86.048 37.71 87.128 37.71 88.512C37.71 89.912 37.474 91.008 37.002 91.8C36.538 92.584 35.734 92.976 34.59 92.976C33.446 92.976 32.638 92.584 32.166 91.8C31.702 91.008 31.47 89.912 31.47 88.512ZM36.366 88.512C36.366 87.864 36.322 87.316 36.234 86.868C36.154 86.42 35.986 86.056 35.73 85.776C35.474 85.488 35.094 85.344 34.59 85.344C34.086 85.344 33.706 85.488 33.45 85.776C33.194 86.056 33.022 86.42 32.934 86.868C32.854 87.316 32.814 87.864 32.814 88.512C32.814 89.184 32.854 89.748 32.934 90.204C33.014 90.66 33.182 91.028 33.438 91.308C33.702 91.588 34.086 91.728 34.59 91.728C35.094 91.728 35.474 91.588 35.73 91.308C35.994 91.028 36.166 90.66 36.246 90.204C36.326 89.748 36.366 89.184 36.366 88.512Z" fill="black"/>
<path d="M125.5 27C127.295 27 128.75 25.5449 128.75 23.75C128.75 21.9551 127.295 20.5 125.5 20.5C123.705 20.5 122.25 21.9551 122.25 23.75C122.25 25.5449 123.705 27 125.5 27Z" stroke="#31BA70" stroke-width="1.5" stroke-miterlimit="10"/>
<path d="M129.713 20.6211C130.16 20.4951 130.629 20.4664 131.088 20.5369C131.547 20.6074 131.986 20.7755 132.374 21.0297C132.763 21.284 133.093 21.6186 133.341 22.011C133.589 22.4034 133.751 22.8445 133.815 23.3045C133.878 23.7646 133.842 24.2329 133.71 24.678C133.577 25.123 133.351 25.5345 133.046 25.8847C132.741 26.2349 132.364 26.5156 131.941 26.708C131.519 26.9004 131.06 27 130.595 27" stroke="#31BA70" stroke-width="1.5" stroke-linecap="round" stroke-linejoin="round"/>
<path d="M121 29.3373C121.507 28.6153 122.181 28.026 122.964 27.6192C123.748 27.2124 124.617 27 125.5 27C126.382 27 127.252 27.2123 128.035 27.619C128.819 28.0258 129.492 28.615 130 29.337" stroke="#31BA70" stroke-width="1.5" stroke-linecap="round" stroke-linejoin="round"/>
<path d="M130.595 27C131.478 26.9994 132.348 27.2114 133.131 27.6182C133.914 28.025 134.588 28.6146 135.095 29.337" stroke="#31BA70" stroke-width="1.5" stroke-linecap="round" stroke-linejoin="round"/>
<path d="M134.713 20.6211C135.16 20.4951 135.629 20.4664 136.088 20.5369C136.547 20.6074 136.986 20.7755 137.374 21.0297C137.763 21.284 138.093 21.6186 138.341 22.011C138.589 22.4034 138.751 22.8445 138.815 23.3045C138.878 23.7646 138.842 24.2329 138.71 24.678C138.577 25.123 138.351 25.5345 138.046 25.8847C137.741 26.2349 137.364 26.5156 136.941 26.708C136.519 26.9004 136.06 27 135.595 27" stroke="#31BA70" stroke-width="1.5" stroke-linecap="round" stroke-linejoin="round"/>
<path d="M135.595 27C136.478 26.9994 137.348 27.2114 138.131 27.6182C138.914 28.025 139.588 28.6146 140.095 29.337" stroke="#31BA70" stroke-width="1.5" stroke-linecap="round" stroke-linejoin="round"/>
<path d="M130 10C132.758 10 135.489 10.5432 138.036 11.5985C140.584 12.6539 142.899 14.2007 144.849 16.1508C146.799 18.1008 148.346 20.4158 149.401 22.9637C150.457 25.5115 151 28.2422 151 31C151 33.7578 150.457 36.4885 149.401 39.0364C148.346 41.5842 146.799 43.8992 144.849 45.8492C142.899 47.7993 140.584 49.3461 138.036 50.4015C135.489 51.4568 132.758 52 130 52C127.242 52 124.511 51.4568 121.964 50.4015C119.416 49.3461 117.101 47.7993 115.151 45.8492C113.201 43.8992 111.654 41.5842 110.599 39.0363C109.543 36.4885 109 33.7577 109 31C109 28.2422 109.543 25.5115 110.599 22.9636C111.654 20.4158 113.201 18.1008 115.151 16.1507C117.101 14.2007 119.416 12.6539 121.964 11.5985C124.511 10.5432 127.242 10 130 10L130 10Z" stroke="#31BA70" stroke-width="2"/>
<circle cx="152" cy="10" r="3" fill="#DD3F3F"/>
</g>
<defs>
<filter id="filter0_d" x="0" y="0" width="162" height="102" filterUnits="userSpaceOnUse" color-interpolation-filters="sRGB">
<feFlood flood-opacity="0" result="BackgroundImageFix"/>
<feColorMatrix in="SourceAlpha" type="matrix" values="0 0 0 0 0 0 0 0 0 0 0 0 0 0 0 0 0 0 127 0" result="hardAlpha"/>
<feOffset/>
<feGaussianBlur stdDeviation="0.5"/>
<feComposite in2="hardAlpha" operator="out"/>
<feColorMatrix type="matrix" values="0 0 0 0 0 0 0 0 0 0 0 0 0 0 0 0 0 0 0.25 0"/>
<feBlend mode="normal" in2="BackgroundImageFix" result="effect1_dropShadow"/>
<feBlend mode="normal" in="SourceGraphic" in2="effect1_dropShadow" result="shape"/>
</filter>
</defs>
</svg>
