<svg width="312" height="132" viewBox="0 0 312 132" fill="none" xmlns="http://www.w3.org/2000/svg">
<path d="M47.6498 48.0057C48.6545 46.9201 49.8524 45.9509 51.2435 45.098C52.48 44.4002 54.0257 43.7411 55.8805 43.1208C57.8125 42.5005 60.0924 42.1904 62.72 42.1904C65.5795 42.1904 68.2457 42.7331 70.7188 43.8187C73.2691 44.8266 75.4331 46.3386 77.2106 48.3546C78.9881 50.293 80.3792 52.6579 81.3838 55.4492C82.4658 58.2405 83.0068 61.3808 83.0068 64.8699V91.4263H67.357V67.7776C67.357 64.2884 66.4296 61.5746 64.5748 59.6362C62.7973 57.6978 60.4402 56.7286 57.5034 56.7286C54.5666 56.7286 52.1709 57.6978 50.3161 59.6362C48.5386 61.5746 47.6498 64.2884 47.6498 67.7776V91.4263H32V23H47.6498V48.0057Z" fill="black"/>
<path d="M187.282 92.0079C184.114 92.0079 181.216 91.5039 178.588 90.4959C175.96 89.4104 173.68 87.8984 171.748 85.96C169.894 83.944 168.425 81.5404 167.343 78.7491C166.339 75.9577 165.836 72.8175 165.836 69.3283V42.7719H181.486V66.4207C181.486 69.9098 182.375 72.6236 184.152 74.5621C186.007 76.5005 188.403 77.4697 191.34 77.4697C194.276 77.4697 196.634 76.5005 198.411 74.5621C200.266 72.6236 201.193 69.9098 201.193 66.4207V42.7719H216.843V91.4263H205.251L202.932 86.1926C201.618 87.2781 200.15 88.2473 198.527 89.1002C197.136 89.8756 195.474 90.5734 193.542 91.1937C191.687 91.7365 189.601 92.0079 187.282 92.0079Z" fill="black"/>
<path d="M262.554 42.1904C265.723 42.1904 268.621 42.7331 271.248 43.8187C273.876 44.8266 276.117 46.3386 277.972 48.3546C279.904 50.293 281.372 52.6579 282.377 55.4492C283.459 58.2405 284 61.3808 284 64.8699V91.4263H268.35V67.7776C268.35 64.2884 267.423 61.5746 265.568 59.6362C263.79 57.6978 261.433 56.7286 258.497 56.7286C255.56 56.7286 253.164 57.6978 251.309 59.6362C249.532 61.5746 248.643 64.2884 248.643 67.7776V91.4263H232.993V42.7719H244.586L246.904 48.0057C248.141 46.9201 249.57 45.9509 251.193 45.098C252.584 44.4002 254.246 43.7411 256.178 43.1208C258.11 42.5005 260.235 42.1904 262.554 42.1904Z" fill="black"/>
<path d="M134.656 86.1512C133.651 87.2367 132.453 88.206 131.062 89.0589C129.825 89.7567 128.28 90.4158 126.425 91.0361C124.493 91.6564 122.213 91.9665 119.585 91.9665C116.726 91.9665 114.06 91.4237 111.587 90.3382C109.036 89.3302 106.872 87.8183 105.095 85.8023C103.317 83.8639 101.926 81.499 100.922 78.7077C99.8396 75.9164 99.2986 72.7761 99.2986 69.2869L99.2986 42.7306L114.948 42.7306V66.3793C114.948 69.8685 115.876 72.5823 117.731 74.5207C119.508 76.4591 121.865 77.4283 124.802 77.4283C127.739 77.4283 130.135 76.4591 131.989 74.5207C133.767 72.5823 134.656 69.8685 134.656 66.3793L134.656 42.7306L150.305 42.7306L150.305 102.046H134.656V86.1512Z" fill="black"/>
<path d="M116.543 102.039H134.656V119H116.543V102.039Z" fill="black"/>
</svg>
